:SAMPLES-PER-SECOND 30
:FULLY-SPECIFIED
:DEGREES
1386
root  -31.866 39.9762 -8.8517 -13.6407 -81.8043 8.35785
RightUpLeg  1.49979 -7.43909 -3.58735
RightLeg  15.1037 11.4793 1.88935
RightFoot  -11.1342 -0.0722221 -1.53734
RightToes  -8.14909e-010 0 -3.6325e-017
Spine  9.44986 -0.0714453 10.9375
Spine1  1.62888 1.10215 -2.30226
HEad  -17.9277 8.48148 -8.66739
LeftShoulder1  -0.130406 3.85482 -31.0534
LeftArm  4.53759 17.9044 -41.4964
LeftForeArm  25.2701 -18.561 -5.19001
LeftHand  -0.0404767 9.47496 0.333657
RightShoulder  -1.00697 -6.19058 30.908
RightArm  11.8347 -0.304573 40.0427
RightForeArm  12.2153 6.51283 6.44419
RightHand  -0.189277 6.54958 -2.18663
LeftUpLeg  -12.4726 8.73536 2.21392
LeftLeg  9.0959 3.39479 -0.179077
LeftFoot  -3.12411 0.492995 -6.59904
LeftToes  1.648e-009 -9.21574e-011 2.55256e-011
1387
root  -31.356 39.9809 -8.95008 -16.2191 -82.7964 10.8777
RightUpLeg  0.504305 -7.99125 -3.72305
RightLeg  15.2971 12.9996 2.34275
RightFoot  -10.4029 -0.0563748 -1.71692
RightToes  -8.14909e-010 0 -3.6325e-017
Spine  9.36471 -0.0293715 11.9773
Spine1  1.47797 1.35926 -2.78034
HEad  -18.446 8.91129 -9.28624
LeftShoulder1  -0.112613 3.80278 -31.5603
LeftArm  2.68183 18.958 -40.8663
LeftForeArm  26.4811 -17.1749 -5.7208
LeftHand  -0.0654041 9.8798 -0.198091
RightShoulder  -0.951374 -6.06391 30.5768
RightArm  11.6551 -1.18088 39.0922
RightForeArm  13.7735 4.74144 6.25235
RightHand  -0.0725956 4.7754 -1.05938
LeftUpLeg  -12.0111 10.6646 1.3777
LeftLeg  14.3149 2.23721 0.874784
LeftFoot  -4.28614 0.411203 -6.25604
LeftToes  1.648e-009 -9.21574e-011 2.55256e-011
1388
root  -30.8654 39.9955 -9.0554 -17.2898 -83.5865 11.9008
RightUpLeg  -0.29732 -8.07992 -3.48311
RightLeg  15.0845 13.8087 2.4826
RightFoot  -9.49875 -0.0355223 -1.78548
RightToes  -8.14909e-010 0 -3.6325e-017
Spine  9.12233 -0.149209 12.4814
Spine1  1.45421 1.36158 -3.0542
HEad  -18.5943 10.1227 -9.66386
LeftShoulder1  -0.185172 3.99636 -31.4598
LeftArm  0.447755 19.8066 -40.7291
LeftForeArm  27.3224 -15.4747 -6.29755
LeftHand  -0.0101609 8.32804 1.24075
RightShoulder  -1.00728 -6.1921 30.9027
RightArm  12.1447 -1.55953 37.6681
RightForeArm  15.862 3.93568 6.31507
RightHand  0.0494045 3.08278 0.434879
LeftUpLeg  -11.1093 10.389 1.50932
LeftLeg  19.115 3.58245 1.71548
LeftFoot  -5.25125 0.350635 -5.98853
LeftToes  1.648e-009 -9.21574e-011 2.55256e-011
1389
root  -30.3846 39.9937 -9.15792 -15.0953 -83.7654 9.59662
RightUpLeg  -0.881143 -8.34752 -3.11531
RightLeg  14.7885 14.1216 2.69644
RightFoot  -8.61501 -0.0160642 -1.78281
RightToes  -8.14909e-010 0 -3.6325e-017
Spine  8.49665 -0.372235 12.4063
Spine1  1.90484 0.994251 -2.17958
HEad  -19.1461 11.3523 -10.079
LeftShoulder1  -0.20011 4.03305 -31.6838
LeftArm  -2.41332 19.8456 -40.7364
LeftForeArm  29.7347 -13.163 -6.89156
LeftHand  -0.0205422 8.00218 0.958054
RightShoulder  -0.985307 -6.1654 30.4521
RightArm  11.9658 -2.50892 36.72
RightForeArm  14.5158 4.2731 6.19426
RightHand  -0.0386841 3.64405 -0.757032
LeftUpLeg  -9.97223 9.82209 2.02622
LeftLeg  23.7152 4.49445 2.49149
LeftFoot  -6.32664 0.280419 -5.54246
LeftToes  1.648e-009 -9.21574e-011 2.55256e-011
1390
root  -29.8734 39.9832 -9.26816 -13.9469 -83.603 8.53644
RightUpLeg  -1.78333 -8.55283 -2.9572
RightLeg  14.6615 14.1388 2.93422
RightFoot  -7.81887 -0.00164233 -1.6626
RightToes  -8.14909e-010 0 -3.6325e-017
Spine  7.73596 -0.649381 11.5345
Spine1  2.29 0.431455 -0.952887
HEad  -19.2644 11.8007 -10.0192
LeftShoulder1  -0.172346 3.96119 -31.5662
LeftArm  -3.97177 19.8499 -41.0276
LeftForeArm  31.0865 -11.3019 -7.31911
LeftHand  -0.0163504 8.40205 1.109
RightShoulder  -0.95412 -6.09626 30.2265
RightArm  12.1541 -3.52659 35.5904
RightForeArm  13.5 5.48832 6.14815
RightHand  -0.0207586 3.46892 -0.51592
LeftUpLeg  -8.92208 9.20501 2.29187
LeftLeg  27.9602 5.28171 3.35548
LeftFoot  -7.05541 0.242714 -5.35498
LeftToes  1.648e-009 -9.21574e-011 2.55256e-011
